<?xml version="1.0" encoding="utf-8"?>
<!-- Generator: Adobe Illustrator 22.0.1, SVG Export Plug-In . SVG Version: 6.00 Build 0)  -->
<svg version="1.1" id="Layer_1" xmlns="http://www.w3.org/2000/svg" xmlns:xlink="http://www.w3.org/1999/xlink" x="0px" y="0px"
	 viewBox="0 0 107 83.6" style="enable-background:new 0 0 107 83.6;" xml:space="preserve">
<style type="text/css">
	.st0{fill:#FFFFFF;}
</style>
<g>
	<path class="st0" d="M97.4,0H45.7c-2.5,0-4.9,1-6.7,2.8c-1.3,1.3-1.3,3.4,0,4.7c1.3,1.3,3.4,1.3,4.7,0c0.5-0.5,1.3-0.8,2-0.8h51.7
		c1.6,0,2.9,1.3,2.9,2.9v37.7c0,1.6-1.3,2.9-2.9,2.9h-4.4c-1.1,0-2.2,0.6-2.8,1.6c-0.6,1-0.7,2.2-0.2,3.2l2.6,5.4l-16.7-9
		c-1.4-0.8-3.1-1.2-4.7-1.2c-0.2,0-0.3-0.2-0.3-0.3v-4.7V21.8c0-5.3-4.3-9.6-9.6-9.6H9.6c-5.3,0-9.6,4.3-9.6,9.6v37.7
		c0,5,3.8,9.1,8.7,9.5L4,78.8c-0.6,1.3-0.3,2.9,0.7,3.9c0.6,0.6,1.5,0.9,2.3,0.9c0.5,0,1.1-0.1,1.6-0.4L35,69h26.3
		c2.8,0,5.4-1.2,7.2-3.3c1.2-1.4,1.1-3.5-0.3-4.7c-1.4-1.2-3.5-1.1-4.7,0.3c-0.6,0.6-1.4,1-2.2,1H34.1c-0.6,0-1.1,0.1-1.6,0.4
		l-18.2,9.7l2.6-5.4c0.5-1,0.4-2.3-0.2-3.2c-0.6-1-1.7-1.6-2.8-1.6H9.6c-1.6,0-2.9-1.3-2.9-2.9V21.8c0-1.6,1.3-2.9,2.9-2.9h51.7
		c1.6,0,2.9,1.3,2.9,2.9v23.3v4.7c0,3.9,3.2,7,7,7c0.5,0,1.1,0.1,1.5,0.4L98.4,71c0.5,0.3,1,0.4,1.6,0.4c0.8,0,1.7-0.3,2.3-0.9
		c1-1,1.3-2.6,0.7-3.9l-4.7-9.8c4.9-0.5,8.7-4.6,8.7-9.5V9.6C107,4.3,102.7,0,97.4,0z"/>
	<path class="st0" d="M15.3,40.3c0,2.4,1.9,4.3,4.3,4.3c2.4,0,4.3-1.9,4.3-4.3c0-2.4-1.9-4.3-4.3-4.3C17.2,36,15.3,37.9,15.3,40.3z"
		/>
	<circle class="st0" cx="35.4" cy="40.3" r="4.3"/>
	<circle class="st0" cx="51.2" cy="40.3" r="4.3"/>
</g>
</svg>
