<?xml version="1.0" encoding="utf-8"?>
<!-- Generator: Adobe Illustrator 22.1.0, SVG Export Plug-In . SVG Version: 6.00 Build 0)  -->
<svg version="1.1" xmlns="http://www.w3.org/2000/svg" xmlns:xlink="http://www.w3.org/1999/xlink" x="0px" y="0px"
	 viewBox="0 0 130 130" style="enable-background:new 0 0 130 130;" xml:space="preserve">
<style type="text/css">
	.st0{fill-rule:evenodd;clip-rule:evenodd;fill:none;stroke:#FFFFFF;stroke-width:5;stroke-linejoin:round;stroke-miterlimit:10;}
	
		.st1{fill-rule:evenodd;clip-rule:evenodd;fill:none;stroke:#FFFFFF;stroke-width:5;stroke-linecap:round;stroke-linejoin:round;stroke-miterlimit:10;}
	.st2{fill:#FFFFFF;}
	.st3{fill:none;stroke:#FFFFFF;stroke-width:5;stroke-linecap:round;stroke-linejoin:round;stroke-miterlimit:10;}
	.st4{fill:none;stroke:#FFFFFF;stroke-width:5;stroke-linejoin:round;stroke-miterlimit:10;}
</style>
<g id="Layer_1">
</g>
<g id="Layer_4">
</g>
<g id="Layer_3">
</g>
<g id="Layer_2">
	<g>
		<path class="st4" d="M94.8,94.8H31.2c-3.2,0-5.8-2.6-5.8-5.8V40.6c0-3.2,2.6-5.8,5.8-5.8h63.6c3.2,0,5.8,2.6,5.8,5.8V89
			C100.6,92.2,98,94.8,94.8,94.8z"/>
		<polygon class="st4" points="57.5,56.1 57.5,73.9 71.8,65 		"/>
		<line class="st4" x1="39" y1="34.9" x2="39" y2="95.1"/>
		<line class="st4" x1="86.3" y1="34.9" x2="86.3" y2="95.1"/>
		<line class="st4" x1="25.4" y1="50.4" x2="39" y2="50.4"/>
		<line class="st4" x1="25.4" y1="64.8" x2="39" y2="64.8"/>
		<line class="st4" x1="25.4" y1="79.3" x2="39" y2="79.3"/>
		<line class="st4" x1="86.3" y1="50.4" x2="99.8" y2="50.4"/>
		<line class="st4" x1="86.3" y1="64.8" x2="99.8" y2="64.8"/>
		<line class="st4" x1="86.3" y1="79.3" x2="99.8" y2="79.3"/>
	</g>
</g>
</svg>
