<?xml version="1.0" encoding="utf-8"?>
<!-- Generator: Adobe Illustrator 22.0.1, SVG Export Plug-In . SVG Version: 6.00 Build 0)  -->
<svg version="1.1" id="Layer_1" xmlns="http://www.w3.org/2000/svg" xmlns:xlink="http://www.w3.org/1999/xlink" x="0px" y="0px"
	 viewBox="0 0 100 100" style="enable-background:new 0 0 100 100;" xml:space="preserve">
<style type="text/css">
	.st0{opacity:0.2;}
	.st1{fill:none;stroke:#231F20;stroke-width:2;}
	.st2{fill:#FFFFFF;}
</style>
<g>
	<g class="st0">
		<path class="st1" d="M64.4,49.2L36.8,30.1c-0.4-0.1-0.7-0.1-1.1,0c-0.4,0.1-0.5,0.5-0.5,0.8V69c0,0.4,0.2,0.7,0.5,0.8
			c0.1,0.1,0.2,0.1,0.5,0.1s0.4,0,0.6-0.1l27.6-19.1c0.2-0.1,0.4-0.5,0.4-0.8C64.8,49.6,64.7,49.4,64.4,49.2L64.4,49.2z"/>
	</g>
	<g>
		<path class="st2" d="M64.4,49.2L36.8,30.1c-0.4-0.1-0.7-0.1-1.1,0c-0.4,0.1-0.5,0.5-0.5,0.8V69c0,0.4,0.2,0.7,0.5,0.8
			c0.1,0.1,0.2,0.1,0.5,0.1s0.4,0,0.6-0.1l27.6-19.1c0.2-0.1,0.4-0.5,0.4-0.8C64.8,49.6,64.7,49.4,64.4,49.2L64.4,49.2z"/>
	</g>
</g>
</svg>
